HIERARCHY
ROOT mixamorig:Hips
{
	OFFSET 0.000000 201.639420 0.000000
	CHANNELS 6 Xposition Yposition Zposition Xrotation Yrotation Zrotation
	JOINT mixamorig:Spine
	{
		OFFSET 0.006200 19.524994 -2.481800
		CHANNELS 3 Xrotation Yrotation Zrotation
		JOINT mixamorig:Spine1
		{
			OFFSET -0.000900 22.835007 -2.825400
			CHANNELS 3 Xrotation Yrotation Zrotation
			JOINT mixamorig:Spine2
			{
				OFFSET -0.020600 26.552490 -3.193300
				CHANNELS 3 Xrotation Yrotation Zrotation
				JOINT mixamorig:Neck
				{
					OFFSET -0.060000 30.701813 1.352200
					CHANNELS 3 Xrotation Yrotation Zrotation
					JOINT mixamorig:Head
					{
						OFFSET -0.087200 22.547607 3.670900
						CHANNELS 3 Xrotation Yrotation Zrotation
						JOINT mixamorig:HeadTop_End
						{
							OFFSET -0.830600 40.355194 7.893500
							CHANNELS 3 Xrotation Yrotation Zrotation
							End Site
							{
								OFFSET 0.000000 30.592346 0.000000
							}
						}
						JOINT mixamorig:RightEye
						{
							OFFSET -6.302100 18.118591 16.197100
							CHANNELS 3 Xrotation Yrotation Zrotation
							End Site
							{
								OFFSET 0.000000 30.592346 0.000000
							}
						}
						JOINT mixamorig:LeftEye
						{
							OFFSET 6.741500 18.382690 16.401899
							CHANNELS 3 Xrotation Yrotation Zrotation
							End Site
							{
								OFFSET 0.000000 30.592346 0.000000
							}
						}
					}
				}
				JOINT mixamorig:LeftShoulder
				{
					OFFSET 11.924900 18.230499 1.425400
					CHANNELS 3 Xrotation Yrotation Zrotation
					JOINT mixamorig:LeftArm
					{
						OFFSET 25.435989 -0.697632 -5.229300
						CHANNELS 3 Xrotation Yrotation Zrotation
						JOINT mixamorig:LeftForeArm
						{
							OFFSET 54.684776 0.000000 0.000000
							CHANNELS 3 Xrotation Yrotation Zrotation
							JOINT mixamorig:LeftHand
							{
								OFFSET 55.098175 0.000000 0.000000
								CHANNELS 3 Xrotation Yrotation Zrotation
								JOINT mixamorig:LeftHandMiddle1
								{
									OFFSET 23.369751 0.000000 0.000000
									CHANNELS 3 Xrotation Yrotation Zrotation
									JOINT mixamorig:LeftHandMiddle2
									{
										OFFSET 6.378677 0.000000 0.000000
										CHANNELS 3 Xrotation Yrotation Zrotation
										JOINT mixamorig:LeftHandMiddle3
										{
											OFFSET 6.148331 0.000000 0.000000
											CHANNELS 3 Xrotation Yrotation Zrotation
											JOINT mixamorig:LeftHandMiddle4
											{
												OFFSET 6.582504 0.000000 0.000000
												CHANNELS 3 Xrotation Yrotation Zrotation
												End Site
												{
													OFFSET -1.168900 6.395691 1.028606
												}
											}
										}
									}
								}
								JOINT mixamorig:LeftHandThumb1
								{
									OFFSET 7.235672 -3.848206 5.434273
									CHANNELS 3 Xrotation Yrotation Zrotation
									JOINT mixamorig:LeftHandThumb2
									{
										OFFSET 6.568451 -3.792297 3.792300
										CHANNELS 3 Xrotation Yrotation Zrotation
										JOINT mixamorig:LeftHandThumb3
										{
											OFFSET 6.063080 -3.500519 3.500518
											CHANNELS 3 Xrotation Yrotation Zrotation
											JOINT mixamorig:LeftHandThumb4
											{
												OFFSET 4.793182 -2.767334 2.767349
												CHANNELS 3 Xrotation Yrotation Zrotation
												End Site
												{
													OFFSET 0.101639 6.054260 1.275483
												}
											}
										}
									}
								}
								JOINT mixamorig:LeftHandIndex1
								{
									OFFSET 23.101074 -0.309540 4.992809
									CHANNELS 3 Xrotation Yrotation Zrotation
									JOINT mixamorig:LeftHandIndex2
									{
										OFFSET 6.226883 0.000000 0.000000
										CHANNELS 3 Xrotation Yrotation Zrotation
										JOINT mixamorig:LeftHandIndex3
										{
											OFFSET 6.094330 0.000000 0.000000
											CHANNELS 3 Xrotation Yrotation Zrotation
											JOINT mixamorig:LeftHandIndex4
											{
												OFFSET 5.482605 0.000000 0.000000
												CHANNELS 3 Xrotation Yrotation Zrotation
												End Site
												{
													OFFSET -1.427902 5.233032 0.797164
												}
											}
										}
									}
								}
								JOINT mixamorig:LeftHandRing1
								{
									OFFSET 22.299240 0.021149 -3.964172
									CHANNELS 3 Xrotation Yrotation Zrotation
									JOINT mixamorig:LeftHandRing2
									{
										OFFSET 6.321869 0.000000 0.000000
										CHANNELS 3 Xrotation Yrotation Zrotation
										JOINT mixamorig:LeftHandRing3
										{
											OFFSET 5.899796 0.000000 0.000000
											CHANNELS 3 Xrotation Yrotation Zrotation
											JOINT mixamorig:LeftHandRing4
											{
												OFFSET 6.517899 0.000000 0.000000
												CHANNELS 3 Xrotation Yrotation Zrotation
												End Site
												{
													OFFSET -1.637299 6.232208 0.980890
												}
											}
										}
									}
								}
								JOINT mixamorig:LeftHandPinky1
								{
									OFFSET 20.463791 -0.302338 -8.562233
									CHANNELS 3 Xrotation Yrotation Zrotation
									JOINT mixamorig:LeftHandPinky2
									{
										OFFSET 6.908646 0.000000 0.000000
										CHANNELS 3 Xrotation Yrotation Zrotation
										JOINT mixamorig:LeftHandPinky3
										{
											OFFSET 4.622849 0.000000 0.000000
											CHANNELS 3 Xrotation Yrotation Zrotation
											JOINT mixamorig:LeftHandPinky4
											{
												OFFSET 5.216080 0.000000 0.000000
												CHANNELS 3 Xrotation Yrotation Zrotation
												End Site
												{
													OFFSET -0.606308 5.116241 0.814926
												}
											}
										}
									}
								}
							}
						}
					}
				}
				JOINT mixamorig:RightShoulder
				{
					OFFSET -12.001300 18.284088 1.348900
					CHANNELS 3 Xrotation Yrotation Zrotation
					JOINT mixamorig:RightArm
					{
						OFFSET -25.308500 -0.751312 -5.164599
						CHANNELS 3 Xrotation Yrotation Zrotation
						JOINT mixamorig:RightForeArm
						{
							OFFSET -54.684429 0.000000 0.000000
							CHANNELS 3 Xrotation Yrotation Zrotation
							JOINT mixamorig:RightHand
							{
								OFFSET -55.150291 0.000000 0.000000
								CHANNELS 3 Xrotation Yrotation Zrotation
								JOINT mixamorig:RightHandMiddle1
								{
									OFFSET -23.317566 0.000000 0.000000
									CHANNELS 3 Xrotation Yrotation Zrotation
									JOINT mixamorig:RightHandMiddle2
									{
										OFFSET -6.378403 0.000000 0.000000
										CHANNELS 3 Xrotation Yrotation Zrotation
										JOINT mixamorig:RightHandMiddle3
										{
											OFFSET -6.148193 0.000000 0.000000
											CHANNELS 3 Xrotation Yrotation Zrotation
											JOINT mixamorig:RightHandMiddle4
											{
												OFFSET -6.583389 0.000000 0.000000
												CHANNELS 3 Xrotation Yrotation Zrotation
												End Site
												{
													OFFSET 1.171692 6.395905 1.029786
												}
											}
										}
									}
								}
								JOINT mixamorig:RightHandThumb1
								{
									OFFSET -7.190521 -3.860474 5.435846
									CHANNELS 3 Xrotation Yrotation Zrotation
									JOINT mixamorig:RightHandThumb2
									{
										OFFSET -6.567429 -3.791718 3.791708
										CHANNELS 3 Xrotation Yrotation Zrotation
										JOINT mixamorig:RightHandThumb3
										{
											OFFSET -6.062469 -3.500153 3.500166
											CHANNELS 3 Xrotation Yrotation Zrotation
											JOINT mixamorig:RightHandThumb4
											{
												OFFSET -4.792618 -2.767029 2.767022
												CHANNELS 3 Xrotation Yrotation Zrotation
												End Site
												{
													OFFSET -0.100327 6.053253 1.276754
												}
											}
										}
									}
								}
								JOINT mixamorig:RightHandIndex1
								{
									OFFSET -23.048981 -0.310791 4.992554
									CHANNELS 3 Xrotation Yrotation Zrotation
									JOINT mixamorig:RightHandIndex2
									{
										OFFSET -6.227539 0.000000 0.000000
										CHANNELS 3 Xrotation Yrotation Zrotation
										JOINT mixamorig:RightHandIndex3
										{
											OFFSET -6.095047 0.000000 0.000000
											CHANNELS 3 Xrotation Yrotation Zrotation
											JOINT mixamorig:RightHandIndex4
											{
												OFFSET -5.484772 0.000000 0.000000
												CHANNELS 3 Xrotation Yrotation Zrotation
												End Site
												{
													OFFSET 1.420593 5.237305 0.797056
												}
											}
										}
									}
								}
								JOINT mixamorig:RightHandRing1
								{
									OFFSET -22.246323 0.020569 -3.963762
									CHANNELS 3 Xrotation Yrotation Zrotation
									JOINT mixamorig:RightHandRing2
									{
										OFFSET -6.322128 0.000000 0.000000
										CHANNELS 3 Xrotation Yrotation Zrotation
										JOINT mixamorig:RightHandRing3
										{
											OFFSET -5.900024 0.000000 0.000000
											CHANNELS 3 Xrotation Yrotation Zrotation
											JOINT mixamorig:RightHandRing4
											{
												OFFSET -6.518356 0.000000 0.000000
												CHANNELS 3 Xrotation Yrotation Zrotation
												End Site
												{
													OFFSET 1.636398 6.232697 0.982186
												}
											}
										}
									}
								}
								JOINT mixamorig:RightHandPinky1
								{
									OFFSET -20.411011 -0.303314 -8.561701
									CHANNELS 3 Xrotation Yrotation Zrotation
									JOINT mixamorig:RightHandPinky2
									{
										OFFSET -6.907349 0.000000 0.000000
										CHANNELS 3 Xrotation Yrotation Zrotation
										JOINT mixamorig:RightHandPinky3
										{
											OFFSET -4.623840 0.000000 0.000000
											CHANNELS 3 Xrotation Yrotation Zrotation
											JOINT mixamorig:RightHandPinky4
											{
												OFFSET -5.218353 0.000000 0.000000
												CHANNELS 3 Xrotation Yrotation Zrotation
												End Site
												{
													OFFSET 0.602097 5.118835 0.816273
												}
											}
										}
									}
								}
							}
						}
					}
				}
			}
		}
	}
	JOINT mixamorig:LeftUpLeg
	{
		OFFSET 18.168400 -13.561905 -0.039000
		CHANNELS 3 Xrotation Yrotation Zrotation
		JOINT mixamorig:LeftLeg
		{
			OFFSET 0.577358 -80.825211 -3.695000
			CHANNELS 3 Xrotation Yrotation Zrotation
			JOINT mixamorig:LeftFoot
			{
				OFFSET -0.577356 -83.370262 -6.520700
				CHANNELS 3 Xrotation Yrotation Zrotation
				JOINT mixamorig:LeftToeBase
				{
					OFFSET 0.750401 -20.798306 25.135401
					CHANNELS 3 Xrotation Yrotation Zrotation
					JOINT mixamorig:LeftToe_End
					{
						OFFSET -0.000500 0.001200 19.917799
						CHANNELS 3 Xrotation Yrotation Zrotation
						End Site
						{
							OFFSET 0.000000 19.917805 0.000000
						}
					}
				}
			}
		}
	}
	JOINT mixamorig:RightUpLeg
	{
		OFFSET -18.162500 -13.585098 -0.041000
		CHANNELS 3 Xrotation Yrotation Zrotation
		JOINT mixamorig:RightLeg
		{
			OFFSET -0.595024 -80.945297 -3.631900
			CHANNELS 3 Xrotation Yrotation Zrotation
			JOINT mixamorig:RightFoot
			{
				OFFSET 0.595024 -83.218193 -6.561200
				CHANNELS 3 Xrotation Yrotation Zrotation
				JOINT mixamorig:RightToeBase
				{
					OFFSET -0.753601 -20.807106 25.115000
					CHANNELS 3 Xrotation Yrotation Zrotation
					JOINT mixamorig:RightToe_End
					{
						OFFSET 0.000299 0.001700 19.918200
						CHANNELS 3 Xrotation Yrotation Zrotation
						End Site
						{
							OFFSET 0.000000 19.918203 0.000000
						}
					}
				}
			}
		}
	}
}
MOTION
Frames: 4
Frame Time: 0.033333
-3.155628 121.261948 2.872639 13.437111 0.730983 7.140549 42.436751 -1.087599 -5.508426 6.246358 -0.041516 1.307706 6.245325 0.131935 1.296968 -10.639549 0.661499 -0.802904 25.570608 0.953817 5.388147 -0.000000 0.000000 0.000000 -0.000000 0.000000 0.000000 -0.000000 0.000000 0.000000 0.408788 2.271030 -6.078300 -3.064510 -41.944871 -45.544473 0.000447 -93.319720 0.000432 39.620141 -1.085914 0.069171 0.860434 3.338029 -28.901474 0.184252 1.585235 -13.257102 0.079172 1.043292 -8.679164 0.000001 0.000001 0.000001 -0.905535 9.847159 15.786965 -0.175083 13.377061 9.387223 -4.774636 7.547203 12.936280 0.000003 -0.000001 0.000004 0.717762 3.065788 -26.347279 0.048337 0.816040 -6.778293 0.010958 0.388884 -3.224171 -0.000000 0.000001 -0.000000 1.072009 3.694749 -32.350050 0.452690 2.459829 -20.852830 0.258629 1.872979 -15.722298 -0.000002 -0.000001 -0.000002 3.619555 7.305959 -35.052466 0.737424 -0.972238 -27.014351 0.477836 2.524734 -21.430617 0.000000 0.000001 0.000003 -2.090967 -17.357169 -0.298050 -36.739704 53.366693 76.163282 0.000027 78.015254 -0.000053 59.689276 -7.492819 10.569929 1.322708 -4.084718 35.872816 0.432252 -2.417626 20.270098 0.245815 -1.835935 15.249557 0.000002 -0.000002 0.000001 0.691888 -16.637198 -10.004863 2.788906 -9.941904 0.929054 -3.966748 -9.007322 -4.650956 -0.000001 -0.000001 0.000001 1.375385 -4.156413 36.606003 0.344676 -2.165989 18.080325 0.170708 -1.534338 12.696925 -0.000004 0.000001 -0.000000 1.279315 -4.024167 35.259048 0.527590 -2.661408 22.422193 0.366224 -2.230872 18.642173 -0.000004 0.000001 0.000001 1.261146 -3.998420 34.999539 0.590402 -2.808633 23.738474 0.484231 -2.553870 21.468960 -0.000002 -0.000000 -0.000003 -96.997982 4.854605 27.233491 107.104750 -3.659856 -9.543200 -17.539007 -1.242269 5.320168 -5.942155 -0.000012 -0.000005 -0.000000 -0.000002 0.000000 -106.425378 9.748272 -18.202586 87.218599 -7.253793 1.156831 6.471198 0.147601 -0.361600 -4.295995 -0.000006 -0.000004 -0.000000 -0.000001 -0.000000 
-2.758852 121.269760 2.963684 13.662896 0.936559 6.503595 42.720508 -1.061192 -5.725659 6.159789 -0.034594 1.350548 6.158455 0.144633 1.339703 -10.566327 0.651830 -0.798768 24.981309 0.903325 5.335841 0.000000 0.000000 -0.000000 0.000000 0.000000 -0.000000 0.000000 0.000000 -0.000000 0.353806 2.940667 -5.470222 -3.172543 -42.608329 -46.208917 -0.000383 -93.952039 -0.000392 39.468497 -1.077253 0.198566 0.860198 3.337634 -28.897868 0.184327 1.585619 -13.260490 0.078849 1.041118 -8.661014 -0.000000 -0.000001 -0.000001 -0.887618 9.888692 15.767155 -0.175083 13.377062 9.387221 -4.825407 7.419804 12.950790 0.000002 -0.000001 0.000001 0.732807 3.095963 -26.627481 0.048339 0.816045 -6.778293 0.010861 0.387360 -3.211458 -0.000001 0.000000 -0.000001 1.049164 3.658477 -31.993583 0.452795 2.460028 -20.854820 0.257935 1.870468 -15.700749 -0.000001 0.000000 0.000004 3.537226 7.268784 -34.403274 0.738039 -0.971038 -27.025602 0.476451 2.521246 -21.399544 -0.000008 0.000000 0.000004 -2.066105 -17.217510 -0.291008 -36.208988 52.795112 75.699205 0.000058 78.390266 -0.000064 59.633166 -7.426688 10.589686 1.228280 -3.951238 34.525551 0.431326 -2.415157 20.248383 0.248523 -1.845885 15.334342 0.000003 -0.000001 0.000003 -0.159469 -16.366841 -11.340769 2.788906 -9.941901 0.929059 -3.794033 -9.301160 -4.617928 0.000002 -0.000000 0.000004 1.231572 -3.955974 34.573041 0.344664 -2.165974 18.080308 0.174035 -1.549006 12.820486 -0.000001 0.000000 -0.000001 1.243924 -3.973831 34.752006 0.527248 -2.660492 22.414012 0.366662 -2.232233 18.654027 0.000003 0.000001 0.000003 1.272757 -4.014938 35.165693 0.590421 -2.808626 23.738456 0.482216 -2.548760 21.423781 -0.000001 -0.000000 0.000001 -97.452292 4.537680 27.117463 107.250485 -3.673624 -9.454222 -17.575663 -1.298501 5.598064 -5.896814 0.000012 0.000006 -0.000000 0.000002 0.000000 -106.353982 9.560287 -18.483631 87.149662 -7.357084 1.318921 6.465942 0.148861 -0.091839 -4.287504 0.000005 0.000003 -0.000001 -0.000002 -0.000000 
-2.362591 121.266968 3.049709 13.887215 1.108309 5.855873 43.062519 -1.039537 -5.947842 6.061700 -0.027280 1.390004 6.060012 0.157485 1.379074 -10.475292 0.658483 -0.817518 24.332928 0.865201 5.435705 0.000000 -0.000000 -0.000000 0.000000 -0.000000 -0.000000 0.000000 -0.000000 -0.000000 0.284210 3.679384 -4.787518 -3.557895 -43.102940 -47.279481 0.001489 -94.493721 0.001486 39.754440 -0.863919 0.159889 0.855543 3.329141 -28.817234 0.184527 1.586398 -13.267225 0.078841 1.041188 -8.661491 0.000001 0.000004 -0.000002 -0.876434 9.897503 15.748727 -0.175084 13.377060 9.387220 -4.836086 7.392978 12.953833 0.000001 0.000001 -0.000001 0.731064 3.092480 -26.595175 0.048340 0.816037 -6.778295 0.010909 0.388060 -3.217488 -0.000002 0.000003 0.000001 1.040138 3.644060 -31.852218 0.453486 2.461825 -20.870609 0.257708 1.869688 -15.693951 -0.000000 -0.000000 0.000002 3.512818 7.257563 -34.210280 0.739490 -0.968238 -27.051777 0.475783 2.519558 -21.384458 -0.000001 0.000001 0.000001 -2.040605 -17.120550 -0.283734 -35.763745 52.249970 75.283834 -0.000050 78.786423 0.000068 59.651361 -7.173336 10.669449 1.118864 -3.787608 32.903931 0.430223 -2.412136 20.222208 0.252052 -1.858708 15.443544 0.000003 -0.000000 0.000001 -1.016913 -16.117880 -12.718266 2.788908 -9.941902 0.929059 -3.613588 -9.607487 -4.582492 -0.000001 -0.000001 -0.000001 1.067571 -3.707303 32.119207 0.344654 -2.165968 18.080334 0.178247 -1.567369 12.975029 -0.000001 0.000001 -0.000001 1.202588 -3.913681 34.150512 0.526764 -2.659398 22.404320 0.367588 -2.234910 18.677110 0.000002 0.000001 0.000001 1.287943 -4.036365 35.382057 0.590421 -2.808658 23.738480 0.480259 -2.543761 21.379747 -0.000003 0.000000 -0.000003 -97.906028 4.275343 27.151540 107.382670 -3.805816 -9.388892 -17.651702 -1.379907 5.994281 -5.812416 -0.000009 0.000004 0.000000 -0.000000 -0.000000 -106.282354 9.349037 -18.753751 87.078089 -7.445648 1.499007 6.464894 0.150432 0.155993 -4.287336 0.000008 -0.000001 -0.000000 0.000001 0.000000 
-1.980486 121.238968 3.182877 14.179562 1.280999 5.257184 43.214610 -1.013163 -6.187919 6.000016 -0.021441 1.451754 5.997926 0.170617 1.440537 -10.414301 0.648197 -0.813500 23.898420 0.820502 5.354015 0.000000 0.000000 -0.000000 0.000000 0.000000 -0.000000 0.000000 0.000000 -0.000000 0.242509 4.115464 -4.438005 -3.807295 -43.114118 -48.093578 0.001096 -95.147643 0.001071 40.503387 -0.366833 -0.082609 0.854349 3.326982 -28.796720 0.184991 1.588386 -13.284035 0.079183 1.043451 -8.680620 -0.000001 -0.000002 -0.000001 -0.858927 9.848979 15.697788 -0.175084 13.377061 9.387220 -4.806891 7.466314 12.945532 0.000000 -0.000001 0.000003 0.719462 3.069246 -26.379388 0.048339 0.816038 -6.778295 0.010926 0.388715 -3.222700 -0.000000 -0.000002 0.000000 1.054310 3.666720 -32.074305 0.455282 2.466571 -20.912832 0.258806 1.873610 -15.727805 -0.000002 -0.000002 -0.000001 3.566368 7.282065 -34.633253 0.742545 -0.962216 -27.107797 0.477972 2.525103 -21.433765 -0.000002 -0.000001 0.000004 -2.020480 -16.953822 -0.278295 -35.134674 51.647176 74.739079 -0.000021 79.113685 0.000011 59.759422 -6.712414 10.815571 1.007564 -3.610140 31.178991 0.429055 -2.408997 20.194419 0.256030 -1.873018 15.565682 -0.000001 -0.000001 0.000003 -1.917572 -15.871724 -14.193662 2.788903 -9.941901 0.929060 -3.439734 -9.902030 -4.547470 -0.000001 -0.000000 0.000004 0.907036 -3.438863 29.543874 0.344689 -2.165975 18.080353 0.182841 -1.587197 13.142212 0.000002 0.000001 -0.000000 1.156385 -3.844863 33.467924 0.526241 -2.658164 22.393315 0.368938 -2.238923 18.712005 -0.000001 0.000000 0.000002 1.298720 -4.051436 35.534971 0.590409 -2.808657 23.738468 0.478779 -2.539957 21.346131 -0.000002 0.000000 0.000002 -98.395623 4.100560 27.297500 107.501816 -4.056570 -9.367887 -17.796553 -1.484540 6.485808 -5.696577 0.000002 0.000000 0.000000 0.000000 0.000000 -106.313213 9.151333 -19.081552 87.049279 -7.462843 1.711714 6.438270 0.151526 0.335151 -4.281396 0.000007 -0.000001 -0.000000 0.000000 -0.000000 
